Coordinates
version=1
nRows=5
nColumns=40
inDegrees=yes

Units are S.I. units (second, meters, Newtons, ...)
Angles are in degrees.

endheader
time	pelvis_tilt	pelvis_list	pelvis_rotation	pelvis_tx	pelvis_ty	pelvis_tz	hip_flexion_r	hip_adduction_r	hip_rotation_r	knee_angle_r	knee_angle_r_beta	ankle_angle_r	subtalar_angle_r	mtp_angle_r	hip_flexion_l	hip_adduction_l	hip_rotation_l	knee_angle_l	knee_angle_l_beta	ankle_angle_l	subtalar_angle_l	mtp_angle_l	lumbar_extension	lumbar_bending	lumbar_rotation	arm_flex_r	arm_add_r	arm_rot_r	elbow_flex_r	pro_sup_r	wrist_flex_r	wrist_dev_r	arm_flex_l	arm_add_l	arm_rot_l	elbow_flex_l	pro_sup_l	wrist_flex_l	wrist_dev_l
      1.45214286	     -3.79228752	     -5.65879946	      7.71958288	      0.80144829	      0.91826148	      0.45516662	     -1.63371024	      5.83483533	    -18.71501427	      8.98998943	      8.98998943	     16.52277257	      2.44120029	     -6.52194629	     31.47881194	     -6.22561060	     -3.89297443	     19.18885822	     19.18885822	      3.24725685	     -9.26025271	      5.74341210	     -7.13083065	      6.86387632	      3.44160313	     35.71292494	    -17.72497970	    -13.92708042	     74.56969554	     45.10531943	      0.00000000	      0.00000000	    -12.52582270	     -7.77322858	      7.13603965	     23.74217376	     44.68543203	      0.00000000	      0.00000000
      1.46428571	     -3.84001763	     -5.65581688	      7.65583811	      0.80210887	      0.91675877	      0.45342089	     -1.67371948	      5.63421740	    -18.35000019	      9.97661324	      9.97661324	     17.39445966	      1.77626645	     -5.85802395	     31.33929023	     -6.10727347	     -3.57074865	     20.13334600	     20.13334600	      2.41497744	    -11.52649636	      5.50997709	     -6.95692415	      6.83847564	      3.40618020	     35.32067727	    -17.49048465	    -14.16343746	     75.55849758	     45.08458213	      0.00000000	      0.00000000	    -12.55220755	     -7.78424241	      7.15316440	     23.71794110	     44.69843235	      0.00000000	      0.00000000
      1.47642857	     -3.70194439	     -5.45536759	      7.47932649	      0.80325928	      0.91589344	      0.45177163	     -2.24196827	      5.31186823	    -18.04740092	     10.40179377	     10.40179377	     17.85889858	      1.60399343	     -5.69063490	     30.86792770	     -6.02895712	     -3.95532145	     21.00270079	     21.00270079	      2.06273865	    -12.48715875	      5.42911178	     -6.96420423	      6.49213901	      3.41385133	     34.76212906	    -17.25044103	    -14.15668373	     75.65999279	     45.08028145	      0.00000000	      0.00000000	    -12.51400186	     -7.85015987	      7.15241269	     23.69277153	     44.70470675	      0.00000000	      0.00000000
      1.48857143	     -3.67118373	     -5.33105839	      7.32893183	      0.80416610	      0.91484875	      0.44987042	     -2.31998630	      4.93753233	    -17.63312854	     11.53372350	     11.53372350	     18.60241641	      0.99383325	     -5.04634419	     30.65736064	     -5.88620412	     -3.81882776	     21.98004679	     21.98004679	      1.60619737	    -13.98951368	      5.17277123	     -6.89105428	      6.32163673	      3.46272760	     34.18865733	    -17.11826272	    -14.28360079	     76.15214142	     45.07099825	      0.00000000	      0.00000000	    -12.28619594	     -7.88031666	      7.16360820	     23.65384272	     44.72193257	      0.00000000	      0.00000000
      1.50071429	     -3.50927053	     -5.09913878	      7.15662060	      0.80538173	      0.91444247	      0.44789642	     -2.83280945	      4.51927874	    -17.33658894	     12.11568371	     12.11568371	     18.92072933	      0.79248377	     -4.87249108	     30.21102764	     -5.72865505	     -3.98106597	     22.82624001	     22.82624001	      1.58425093	    -14.67648818	      5.00601986	     -6.90775389	      6.00248249	      3.41695974	     33.39178473	    -16.78463099	    -14.20774821	     76.08471673	     45.06867729	      0.00000000	      0.00000000	    -12.05435543	     -7.90726848	      7.17088027	     23.65834820	     44.73012571	      0.00000000	      0.00000000
